<svg xmlns="http://www.w3.org/2000/svg" xmlns:xlink="http://www.w3.org/1999/xlink" version="1.1" x="0px" y="0px" viewBox="0 0 100 125" enable-background="new 0 0 100 100" xml:space="preserve"><g><path d="M69.172,73.779H30.828c-0.924,0-1.667,0.743-1.667,1.67s0.74,1.673,1.667,1.673h38.346c0.92,0,1.666-0.746,1.666-1.673   S70.1,73.779,69.172,73.779z"/><path d="M69.172,81.393H50.001c-0.924,0-1.67,0.746-1.67,1.674c0,0.92,0.744,1.67,1.67,1.67h19.173c0.926,0,1.67-0.743,1.67-1.67   C70.842,82.139,70.1,81.393,69.172,81.393z"/><path d="M34.06,59.213c0,5.246,31.876,5.246,31.876,0c0-4.434-5.107-10.425-12.006-12.175c2.884-1.938,4.871-5.768,4.871-9.21   c0-4.862-3.939-8.807-8.803-8.807c-4.865,0-8.8,3.945-8.8,8.807c0,3.442,1.986,7.275,4.865,9.21   C39.175,48.789,34.06,54.779,34.06,59.213z M49.285,49.594h-0.038l-1.456-1.677c0.709,0.258,1.437,0.41,2.207,0.41   c0.769,0,1.497-0.149,2.207-0.399l-1.463,1.671h-0.035l3.767,9.088l-4.476,4.463l-4.47-4.463L49.285,49.594z"/><path d="M74.188,9.331c0.521,1.271,0.873,2.601,0.873,3.965v3.531c0.113,0.466,0.188,0.949,0.188,1.448v66.354   c0,3.432-2.791,6.221-6.219,6.221H30.972c-3.428,0-6.218-2.789-6.218-6.221V18.276c0-3.431,2.791-6.22,6.218-6.22h26.001   c0.175-1.501,0.613-2.913,1.359-4.15h-27.36c-5.717,0-10.364,4.649-10.364,10.37v66.353C20.608,90.351,25.255,95,30.972,95h38.057   c5.717,0,10.363-4.649,10.363-10.371V18.276C79.395,14.443,77.283,11.127,74.188,9.331z"/><path d="M65.941,28.695c4.146,0,7.516-3.721,7.516-8.289v-7.113c0.006-1.613-0.432-3.106-1.156-4.381l-1.762,1.764   c0.344,0.793,0.555,1.671,0.555,2.617v7.11c0,3.271-2.314,5.923-5.152,5.926c-2.842-0.003-5.145-2.655-5.145-5.926v-7.11   c0-3.267,2.31-5.923,5.15-5.925c0.863,0.002,1.67,0.275,2.385,0.707l1.711-1.715C68.861,5.51,67.457,5.003,65.947,5   c-4.152,0-7.522,3.721-7.522,8.293l-0.003,7.112C58.422,24.975,61.795,28.692,65.941,28.695z"/></g><text x="0" y="115" fill="#000000" font-size="5px" font-weight="bold" font-family="'Helvetica Neue', Helvetica, Arial-Unicode, Arial, Sans-serif">Created by Fiona OM</text><text x="0" y="120" fill="#000000" font-size="5px" font-weight="bold" font-family="'Helvetica Neue', Helvetica, Arial-Unicode, Arial, Sans-serif">from the Noun Project</text></svg>